<svg width="640" height="420" viewBox="0 0 640 420" fill="none" xmlns="http://www.w3.org/2000/svg">
  <defs>
    <linearGradient id="listBg" x1="68" y1="36" x2="560" y2="376" gradientUnits="userSpaceOnUse">
      <stop stop-color="#111F35"/>
      <stop offset="1" stop-color="#091423"/>
    </linearGradient>
    <linearGradient id="listAccent" x1="142" y1="110" x2="472" y2="292" gradientUnits="userSpaceOnUse">
      <stop stop-color="#67E8F9"/>
      <stop offset="0.55" stop-color="#60A5FA"/>
      <stop offset="1" stop-color="#A78BFA"/>
    </linearGradient>
  </defs>
  <rect width="640" height="420" rx="32" fill="#09111E"/>
  <rect x="70" y="44" width="500" height="332" rx="30" fill="url(#listBg)"/>
  <rect x="70.75" y="44.75" width="498.5" height="330.5" rx="29.25" stroke="#8ABFFF" stroke-opacity="0.16" stroke-width="1.5"/>
  <path d="M116 92H214" stroke="#F0F7FF" stroke-width="10" stroke-linecap="round"/>
  <path d="M116 120H174" stroke="#D7E7FF" stroke-opacity="0.55" stroke-width="8" stroke-linecap="round"/>
  <rect x="398" y="82" width="126" height="44" rx="22" fill="#7DD3FC" fill-opacity="0.14" stroke="#7DD3FC" stroke-opacity="0.34"/>
  <path d="M138 174L151 187L175 161" stroke="url(#listAccent)" stroke-width="8" stroke-linecap="round" stroke-linejoin="round"/>
  <rect x="116" y="146" width="412" height="56" rx="20" fill="#0D1A2D"/>
  <path d="M202 168H364" stroke="#EAF4FF" stroke-width="8" stroke-linecap="round"/>
  <path d="M202 187H307" stroke="#D5E7FF" stroke-opacity="0.5" stroke-width="7" stroke-linecap="round"/>
  <path d="M138 254L151 267L175 241" stroke="#7DD3FC" stroke-width="8" stroke-linecap="round" stroke-linejoin="round"/>
  <rect x="116" y="226" width="412" height="56" rx="20" fill="#0D1A2D"/>
  <path d="M202 248H390" stroke="#EAF4FF" stroke-width="8" stroke-linecap="round"/>
  <path d="M202 267H342" stroke="#D5E7FF" stroke-opacity="0.5" stroke-width="7" stroke-linecap="round"/>
  <rect x="116" y="306" width="190" height="34" rx="17" fill="url(#listAccent)"/>
  <rect x="320" y="306" width="208" height="34" rx="17" fill="#101D31"/>
  <path d="M349 323H466" stroke="#D8E6FF" stroke-opacity="0.76" stroke-width="8" stroke-linecap="round"/>
</svg>
