<svg width="720" height="620" viewBox="0 0 720 620" fill="none" xmlns="http://www.w3.org/2000/svg">
  <defs>
    <linearGradient id="panel" x1="120" y1="78" x2="605" y2="545" gradientUnits="userSpaceOnUse">
      <stop stop-color="#122238"/>
      <stop offset="1" stop-color="#0A1423"/>
    </linearGradient>
    <linearGradient id="edge" x1="164" y1="102" x2="616" y2="524" gradientUnits="userSpaceOnUse">
      <stop stop-color="#7DD3FC" stop-opacity="0.46"/>
      <stop offset="0.55" stop-color="#60A5FA" stop-opacity="0.24"/>
      <stop offset="1" stop-color="#A78BFA" stop-opacity="0.18"/>
    </linearGradient>
    <linearGradient id="accent" x1="0" y1="0" x2="1" y2="1">
      <stop stop-color="#7DD3FC"/>
      <stop offset="1" stop-color="#60A5FA"/>
    </linearGradient>
    <linearGradient id="accent2" x1="0" y1="0" x2="1" y2="1">
      <stop stop-color="#C4B5FD"/>
      <stop offset="1" stop-color="#60A5FA"/>
    </linearGradient>
    <filter id="blur" x="0" y="0" width="720" height="620" filterUnits="userSpaceOnUse" color-interpolation-filters="sRGB">
      <feGaussianBlur stdDeviation="18"/>
    </filter>
  </defs>
  <rect width="720" height="620" rx="36" fill="#07101D"/>
  <g filter="url(#blur)" opacity="0.55">
    <circle cx="172" cy="160" r="92" fill="#67E8F9"/>
    <circle cx="586" cy="148" r="80" fill="#60A5FA"/>
    <circle cx="534" cy="466" r="106" fill="#A78BFA"/>
  </g>
  <rect x="116" y="70" width="488" height="454" rx="34" fill="url(#panel)"/>
  <rect x="116.75" y="70.75" width="486.5" height="452.5" rx="33.25" stroke="url(#edge)" stroke-width="1.5"/>
  <rect x="154" y="108" width="168" height="126" rx="24" fill="#0F1D31"/>
  <rect x="154.75" y="108.75" width="166.5" height="124.5" rx="23.25" stroke="#8ABFFF" stroke-opacity="0.16" stroke-width="1.5"/>
  <rect x="350" y="108" width="216" height="72" rx="24" fill="#0D1B2E"/>
  <rect x="350.75" y="108.75" width="214.5" height="70.5" rx="23.25" stroke="#98BDF3" stroke-opacity="0.15" stroke-width="1.5"/>
  <rect x="350" y="196" width="216" height="144" rx="28" fill="#0C192A"/>
  <rect x="350.75" y="196.75" width="214.5" height="142.5" rx="27.25" stroke="#9CC3FF" stroke-opacity="0.15" stroke-width="1.5"/>
  <rect x="154" y="258" width="168" height="82" rx="24" fill="#0D1B2E"/>
  <rect x="154" y="364" width="412" height="120" rx="28" fill="#0B1829"/>
  <path d="M180 142H228" stroke="url(#accent)" stroke-width="12" stroke-linecap="round"/>
  <path d="M180 170H286" stroke="#C4D8F7" stroke-opacity="0.78" stroke-width="9" stroke-linecap="round"/>
  <path d="M180 196H252" stroke="#C4D8F7" stroke-opacity="0.45" stroke-width="9" stroke-linecap="round"/>
  <rect x="244" y="130" width="48" height="48" rx="16" fill="url(#accent)"/>
  <rect x="244" y="130" width="48" height="48" rx="16" fill="#8FE7F5" fill-opacity="0.14"/>
  <path d="M376 136H503" stroke="#E5F0FF" stroke-opacity="0.9" stroke-width="10" stroke-linecap="round"/>
  <path d="M376 156H455" stroke="#D4E5FF" stroke-opacity="0.58" stroke-width="8" stroke-linecap="round"/>
  <rect x="490" y="127" width="48" height="34" rx="17" fill="#7DD3FC" fill-opacity="0.16" stroke="#7DD3FC" stroke-opacity="0.45"/>
  <rect x="376" y="222" width="58" height="58" rx="18" fill="url(#accent2)"/>
  <path d="M461 232H522" stroke="#F1F7FF" stroke-opacity="0.88" stroke-width="9" stroke-linecap="round"/>
  <path d="M461 256H533" stroke="#D5E5FF" stroke-opacity="0.64" stroke-width="8" stroke-linecap="round"/>
  <path d="M461 281H508" stroke="#C8DDFE" stroke-opacity="0.44" stroke-width="8" stroke-linecap="round"/>
  <rect x="377" y="296" width="161" height="18" rx="9" fill="#11263E"/>
  <rect x="377" y="296" width="114" height="18" rx="9" fill="url(#accent)"/>
  <path d="M179 286H281" stroke="#EAF4FF" stroke-opacity="0.82" stroke-width="9" stroke-linecap="round"/>
  <path d="M179 309H236" stroke="#D7E7FF" stroke-opacity="0.48" stroke-width="8" stroke-linecap="round"/>
  <path d="M181 402H284" stroke="#ECF4FF" stroke-opacity="0.9" stroke-width="9" stroke-linecap="round"/>
  <path d="M181 429H363" stroke="#D8E7FF" stroke-opacity="0.62" stroke-width="8" stroke-linecap="round"/>
  <path d="M181 454H322" stroke="#C6D8F1" stroke-opacity="0.4" stroke-width="8" stroke-linecap="round"/>
  <g opacity="0.85">
    <rect x="458" y="397" width="74" height="54" rx="20" fill="#0F2136" stroke="#76C6FF" stroke-opacity="0.4"/>
    <path d="M484 415H506" stroke="#85D9FF" stroke-width="7" stroke-linecap="round"/>
    <path d="M495 404V426" stroke="#85D9FF" stroke-width="7" stroke-linecap="round"/>
  </g>
</svg>
